<?xml version="1.0" encoding="utf-8"?>
<!-- Generator: Adobe Illustrator 26.0.2, SVG Export Plug-In . SVG Version: 6.00 Build 0)  -->
<svg version="1.1" id="Layer_1" xmlns="http://www.w3.org/2000/svg" xmlns:xlink="http://www.w3.org/1999/xlink" x="0px" y="0px"
	 viewBox="0 0 54 33" style="enable-background:new 0 0 54 33;" xml:space="preserve">
<style type="text/css">
	.st0{fill:#F0F0F0;stroke:#B7B7B7;stroke-width:0.5;stroke-miterlimit:10;}
	.st1{fill:#FBD637;}
	.st2{fill:#43A7DE;}
	.st3{fill:#FFD100;}
	.st4{fill:#4B4A4B;}
</style>
<path class="st0" d="M51.3,32.7H2.7c-1.3,0-2.4-1.1-2.4-2.4V2.7c0-1.3,1.1-2.4,2.4-2.4h48.6c1.3,0,2.4,1.1,2.4,2.4v27.6
	C53.7,31.6,52.6,32.7,51.3,32.7z"/>
<g>
	<path class="st1" d="M14.9,13.9c0.2,0.4,0.4,0.8,0.6,1.1c0.3,0.6,0.6,1.1,0.8,1.7c0.1,0.2,0.2,0.5,0.2,0.7c0,0.3,0,0.5-0.1,0.8
		c-0.2,0.6-0.6,0.9-1.2,1c-0.5,0.1-0.9,0.1-1.4,0c-0.8-0.2-1.6-0.5-2.4-0.8c-0.3-0.1-0.6-0.3-0.9-0.4c-0.1,0-0.2,0-0.2,0
		c-0.8,0.4-1.7,0.8-2.6,1.1c-0.6,0.2-1.2,0.3-1.8,0.2c-0.2,0-0.5-0.1-0.7-0.1c-0.5-0.2-0.8-0.6-0.9-1.1c-0.1-0.3-0.1-0.5,0-0.8
		c0.2-0.6,0.4-1.1,0.7-1.6c0.3-0.5,0.5-1.1,0.8-1.6c0-0.1,0.1-0.1,0.1-0.2l-0.1-0.1c-0.5-0.6-0.8-1.3-1-2.1
		c-0.1-0.3-0.1-0.6-0.1-0.9c0-0.7,0.4-1.2,1.1-1.3c0.4-0.1,0.9-0.1,1.3,0c0.4,0.1,0.8,0.2,1.1,0.3h0.1c0-0.1,0.1-0.1,0.1-0.2
		C8.7,9.2,9,8.8,9.3,8.4c0.2-0.1,0.3-0.2,0.5-0.3c0.4-0.2,0.8-0.2,1.2,0c0.3,0.1,0.5,0.3,0.7,0.5c0.3,0.3,0.5,0.6,0.7,0.9l0.1,0.1
		c0.3-0.1,0.5-0.2,0.8-0.2c0.5-0.1,1-0.2,1.5-0.1c0.2,0,0.3,0.1,0.5,0.1c0.6,0.2,0.9,0.7,0.9,1.3c0,0.5-0.1,0.9-0.3,1.3
		c-0.2,0.6-0.5,1.1-0.9,1.6C14.9,13.8,14.9,13.8,14.9,13.9z M10.4,9.7c-1,1.7-2,3.4-2.9,5c0.9,0.9,1.9,1.7,2.9,2.3
		c1.1-0.7,2-1.4,2.9-2.3C12.3,13.1,11.4,11.4,10.4,9.7z M12.6,9.9c0.7,1.2,1.3,2.3,2,3.5l0,0c0.4-0.6,0.8-1.2,1-1.9
		c0.1-0.3,0.1-0.6,0.1-0.9c0-0.4-0.2-0.6-0.5-0.8c-0.2-0.1-0.4-0.2-0.6-0.2c-0.4-0.1-0.8,0-1.2,0C13.2,9.7,12.9,9.7,12.6,9.9z
		 M8.2,9.9C8.1,9.8,8,9.8,7.9,9.7c-0.5-0.1-1-0.2-1.5-0.2c-0.3,0-0.6,0.1-0.9,0.2C5.2,9.9,5.1,10.1,5,10.4c-0.1,0.3,0,0.7,0.1,1
		c0.2,0.7,0.6,1.3,1,1.9l0,0C6.9,12.1,7.5,11,8.2,9.9z M11.1,17.3C11.2,17.3,11.2,17.4,11.1,17.3c0.7,0.3,1.4,0.5,2.1,0.5
		c0.3,0,0.5,0,0.8,0c0.3-0.1,0.4-0.3,0.4-0.5s0-0.4-0.1-0.6c-0.2-0.4-0.4-0.8-0.7-1.2c0,0,0-0.1-0.1-0.1C12.9,16,12,16.7,11.1,17.3z
		 M9.7,17.3c-0.9-0.6-1.7-1.3-2.5-2c0,0,0,0-0.1,0.1c-0.2,0.4-0.4,0.7-0.6,1.1c-0.1,0.2-0.1,0.4-0.2,0.6c0,0.5,0.1,0.7,0.5,0.8
		c0.3,0.1,0.6,0,0.9,0c0.6-0.1,1.2-0.2,1.7-0.4C9.5,17.4,9.6,17.4,9.7,17.3z"/>
	<path class="st2" d="M30.8,16.2c0,0.1,0,0.1,0,0.2c0,0.6,0,1.3,0,1.9c0,0.1,0,0.2,0,0.3c-0.1,0.7-1,1-1.5,0.7
		c-0.4-0.2-0.5-0.5-0.6-0.9c0-0.2,0-0.4,0-0.5c0-2.2,0-4.3,0-6.5c0-0.2,0-0.4,0-0.6c0-0.5,0.4-0.9,0.9-1c0.1,0,0.3,0,0.4,0
		c0.8,0,1.6,0,2.4,0c0.4,0,0.8,0.1,1.1,0.2c0.7,0.2,1.3,0.7,1.7,1.4c0.6,1.1,0.6,2.6-0.1,3.6c-0.4,0.7-1.1,1-1.8,1.2
		c-0.3,0-0.5,0.1-0.8,0.1c-0.5,0-0.9,0-1.4,0C30.9,16.2,30.8,16.2,30.8,16.2z M30.8,11.7c0,0.2,0,2.4,0,2.6c0.5,0,0.9,0,1.4,0
		c0.6-0.1,1-0.5,1.1-1.1s-0.2-1.3-0.9-1.4c-0.1,0-0.2,0-0.3,0c-0.4,0-0.8,0-1.1,0C30.9,11.7,30.8,11.7,30.8,11.7z"/>
	<path class="st2" d="M40.9,18.6c-0.1,0.1-0.2,0.2-0.3,0.3c-0.4,0.4-0.8,0.5-1.3,0.6c-1.6,0.1-2.8-1.1-3.2-2.1
		c-0.3-0.7-0.3-1.3-0.3-2c0-0.6,0.2-1.2,0.5-1.7c0.5-0.7,1.1-1.3,1.9-1.5c0.4-0.1,0.9-0.2,1.3-0.1c0.4,0.1,0.7,0.2,1,0.5
		c0.1,0.1,0.2,0.2,0.3,0.3c0-0.1,0.1-0.1,0.1-0.2c0.3-0.6,1.2-0.7,1.7-0.2c0.2,0.2,0.2,0.4,0.3,0.7c0,0.2,0,0.3,0,0.5
		c0,1.5,0,3,0,4.6c0,0.2,0,0.4-0.1,0.6c-0.2,0.4-0.4,0.6-0.9,0.7c-0.4,0-0.7-0.1-1-0.5C41,18.8,40.9,18.7,40.9,18.6z M40.8,15.6
		c0-0.3,0-0.6-0.2-0.9c-0.3-0.7-0.9-1-1.6-0.8c-0.5,0.1-0.8,0.5-1,0.9c-0.1,0.4-0.2,0.8-0.1,1.2c0,0.3,0.1,0.7,0.4,0.9
		c0.3,0.4,0.8,0.6,1.3,0.5c0.4-0.1,0.7-0.4,0.9-0.7C40.8,16.4,40.8,16,40.8,15.6z"/>
	<path class="st1" d="M22.8,16.4c0.2,0.6,0.6,1.1,1.2,1.2c0.5,0.1,0.9,0,1.4-0.2c0.2-0.1,0.5-0.2,0.7-0.3c0.2-0.1,0.4-0.1,0.5-0.1
		c0.5,0,1,0.7,0.7,1.2c-0.1,0.2-0.2,0.3-0.4,0.5c-0.4,0.3-0.8,0.5-1.3,0.6c-1,0.3-2,0.3-2.9-0.1c-1.3-0.5-2-1.4-2.2-2.8
		c-0.1-0.8-0.1-1.6,0.3-2.3c0.5-1.2,1.4-1.9,2.7-2.1c1.8-0.3,3.4,0.8,3.9,2.6c0.1,0.3,0.1,0.7,0.1,1c0,0.6-0.3,0.8-0.8,0.8
		c-0.1,0-0.1,0-0.2,0c-1.2,0-2.4,0-3.6,0C23,16.4,22.9,16.4,22.8,16.4z M25.5,14.9c0-0.3-0.2-0.7-0.5-1c-0.1-0.1-0.3-0.2-0.5-0.3
		c-0.8-0.2-1.5,0.2-1.8,1.2C23.7,14.9,24.6,14.9,25.5,14.9z"/>
	<path class="st2" d="M47,16c0-0.1,0.1-0.1,0.1-0.2c0.4-1,0.8-1.9,1.2-2.9c0.1-0.2,0.2-0.4,0.3-0.6c0.2-0.4,0.7-0.5,1.1-0.4
		c0.4,0.1,0.8,0.5,0.8,0.9c0,0.2,0,0.3-0.1,0.5c-0.1,0.4-0.3,0.8-0.5,1.2c-1,2.3-1.9,4.5-2.9,6.8c-0.1,0.2-0.1,0.3-0.2,0.5
		c-0.2,0.4-0.5,0.5-0.9,0.5S45.2,22,45,21.7c-0.1-0.2-0.1-0.4,0-0.6c0-0.2,0.1-0.3,0.2-0.5c0.3-0.6,0.5-1.2,0.8-1.8
		c0-0.1,0-0.2,0-0.2c-0.7-1.6-1.3-3.2-2-4.7c-0.1-0.2-0.1-0.4-0.2-0.6C43.6,12.5,44.3,12,45,12c0.3,0,0.6,0.2,0.7,0.5
		c0.1,0.2,0.2,0.4,0.3,0.6c0.4,1,0.8,1.9,1.2,2.9C47,15.9,47,15.9,47,16z"/>
	<path class="st1" d="M19.7,14.1c0,1.3,0,2.6,0,3.8c0,0.2,0,0.4-0.1,0.6c-0.1,0.6-0.8,1-1.4,0.7c-0.4-0.1-0.6-0.4-0.6-0.8
		c0-0.2,0-0.3,0-0.5c0-2.6,0-5.3,0-7.9c0-0.2,0-0.4,0-0.5c0.1-0.4,0.4-0.8,0.9-0.8c0.2,0,0.4,0,0.6,0.1c0.3,0.2,0.5,0.5,0.5,0.8
		c0,0.2,0,0.4,0,0.5C19.7,11.6,19.7,12.8,19.7,14.1z"/>
	<path class="st3" d="M14.9,13.9c0.2,0.4,0.4,0.8,0.6,1.1c0.3,0.6,0.6,1.1,0.8,1.7c0.1,0.2,0.2,0.5,0.2,0.7c0,0.3,0,0.5-0.1,0.8
		c-0.2,0.6-0.6,0.9-1.2,1c-0.5,0.1-0.9,0.1-1.4,0c-0.8-0.2-1.6-0.5-2.4-0.8c-0.3-0.1-0.6-0.3-0.9-0.4c-0.1,0-0.2,0-0.2,0
		c-0.8,0.4-1.7,0.8-2.6,1.1c-0.6,0.2-1.2,0.3-1.8,0.2c-0.2,0-0.5-0.1-0.7-0.1c-0.5-0.2-0.8-0.6-0.9-1.1c-0.1-0.3-0.1-0.5,0-0.8
		c0.2-0.6,0.4-1.1,0.7-1.6c0.3-0.5,0.5-1.1,0.8-1.6c0-0.1,0.1-0.1,0.1-0.2l-0.1-0.1c-0.5-0.6-0.8-1.3-1-2.1
		c-0.1-0.3-0.1-0.6-0.1-0.9c0-0.7,0.4-1.2,1.1-1.3c0.4-0.1,0.9-0.1,1.3,0c0.4,0.1,0.8,0.2,1.1,0.3h0.1c0-0.1,0.1-0.1,0.1-0.2
		C8.7,9.2,9,8.8,9.3,8.4c0.2-0.1,0.3-0.2,0.5-0.3c0.4-0.2,0.8-0.2,1.2,0c0.3,0.1,0.5,0.3,0.7,0.5c0.3,0.3,0.5,0.6,0.7,0.9l0.1,0.1
		c0.3-0.1,0.5-0.2,0.8-0.2c0.5-0.1,1-0.2,1.5-0.1c0.2,0,0.3,0.1,0.5,0.1c0.6,0.2,0.9,0.7,0.9,1.3c0,0.5-0.1,0.9-0.3,1.3
		c-0.2,0.6-0.5,1.1-0.9,1.6C14.9,13.8,14.9,13.8,14.9,13.9z M10.4,9.7c-1,1.7-2,3.4-2.9,5c0.9,0.9,1.9,1.7,2.9,2.3
		c1.1-0.7,2-1.4,2.9-2.3C12.3,13.1,11.4,11.4,10.4,9.7z M12.6,9.9c0.7,1.2,1.3,2.3,2,3.5l0,0c0.4-0.6,0.8-1.2,1-1.9
		c0.1-0.3,0.1-0.6,0.1-0.9c0-0.4-0.2-0.6-0.5-0.8c-0.2-0.1-0.4-0.2-0.6-0.2c-0.4-0.1-0.8,0-1.2,0C13.2,9.7,12.9,9.7,12.6,9.9z
		 M8.2,9.9C8.1,9.8,8,9.8,7.9,9.7c-0.5-0.1-1-0.2-1.5-0.2c-0.3,0-0.6,0.1-0.9,0.2C5.2,9.9,5.1,10.1,5,10.4c-0.1,0.3,0,0.7,0.1,1
		c0.2,0.7,0.6,1.3,1,1.9l0,0C6.9,12.1,7.5,11,8.2,9.9z M11.1,17.3C11.2,17.3,11.2,17.4,11.1,17.3c0.7,0.3,1.4,0.5,2.1,0.5
		c0.3,0,0.5,0,0.8,0c0.3-0.1,0.4-0.3,0.4-0.5s0-0.4-0.1-0.6c-0.2-0.4-0.4-0.8-0.7-1.2c0,0,0-0.1-0.1-0.1C12.9,16,12,16.7,11.1,17.3z
		 M9.7,17.3c-0.9-0.6-1.7-1.3-2.5-2c0,0,0,0-0.1,0.1c-0.2,0.4-0.4,0.7-0.6,1.1c-0.1,0.2-0.1,0.4-0.2,0.6c0,0.5,0.1,0.7,0.5,0.8
		c0.3,0.1,0.6,0,0.9,0c0.6-0.1,1.2-0.2,1.7-0.4C9.5,17.4,9.6,17.4,9.7,17.3z"/>
	<path class="st3" d="M22.8,16.4c0.2,0.6,0.6,1.1,1.2,1.2c0.5,0.1,0.9,0,1.4-0.2c0.2-0.1,0.5-0.2,0.7-0.3c0.2-0.1,0.4-0.1,0.5-0.1
		c0.5,0,1,0.7,0.7,1.2c-0.1,0.2-0.2,0.3-0.4,0.5c-0.4,0.3-0.8,0.5-1.3,0.6c-1,0.3-2,0.3-2.9-0.1c-1.3-0.5-2-1.4-2.2-2.8
		c-0.1-0.8-0.1-1.6,0.3-2.3c0.5-1.2,1.4-1.9,2.7-2.1c1.8-0.3,3.4,0.8,3.9,2.6c0.1,0.3,0.1,0.7,0.1,1c0,0.6-0.3,0.8-0.8,0.8
		c-0.1,0-0.1,0-0.2,0c-1.2,0-2.4,0-3.6,0C23,16.4,22.9,16.4,22.8,16.4z M25.5,14.9c0-0.3-0.2-0.7-0.5-1c-0.1-0.1-0.3-0.2-0.5-0.3
		c-0.8-0.2-1.5,0.2-1.8,1.2C23.7,14.9,24.6,14.9,25.5,14.9z"/>
	<path class="st3" d="M19.7,14.1c0,1.3,0,2.6,0,3.8c0,0.2,0,0.4-0.1,0.6c-0.1,0.6-0.8,1-1.4,0.7c-0.4-0.1-0.6-0.4-0.6-0.8
		c0-0.2,0-0.3,0-0.5c0-2.6,0-5.3,0-7.9c0-0.2,0-0.4,0-0.5c0.1-0.4,0.4-0.8,0.9-0.8c0.2,0,0.4,0,0.6,0.1c0.3,0.2,0.5,0.5,0.5,0.8
		c0,0.2,0,0.4,0,0.5C19.7,11.6,19.7,12.8,19.7,14.1z"/>
	<path class="st4" d="M29.1,23.7c-0.1,0-0.1,0-0.2,0c0-0.1,0-0.1,0-0.2c0-0.3,0-0.7,0-1c0-0.1,0-0.2,0-0.2c0-0.2-0.1-0.4-0.4-0.5
		c-0.2-0.1-0.5,0-0.7,0.1s-0.2,0.3-0.2,0.6c0,0.4,0,0.7,0,1.1c0,0.1,0,0.1,0,0.2c-0.1,0-0.1,0-0.2,0c0-0.7,0-1.4,0-2.1
		c0.1,0,0.1,0,0.2,0c0,0.1,0,0.2,0,0.3c0.2-0.3,0.4-0.4,0.7-0.4c0.3,0,0.5,0.2,0.7,0.4c0-0.1,0.1-0.1,0.1-0.1
		c0.3-0.3,0.7-0.4,1.1-0.2c0.3,0.2,0.4,0.4,0.4,0.7c0,0.4,0,0.8,0,1.1c0,0.1,0,0.2,0,0.2c-0.1,0-0.1,0-0.2,0c0-0.1,0-0.1,0-0.2
		c0-0.4,0-0.7,0-1.1c0-0.1,0-0.2,0-0.2c0-0.3-0.2-0.5-0.5-0.5c-0.3-0.1-0.5,0.1-0.7,0.3c-0.1,0.1-0.1,0.3-0.1,0.5c0,0.4,0,0.7,0,1.1
		C29.1,23.6,29.1,23.7,29.1,23.7z"/>
	<path class="st4" d="M14,23.7c-0.1,0-0.1,0-0.2,0c0-0.1,0-0.1,0-0.2c0-0.3,0-0.7,0-1c0-0.1,0-0.2,0-0.3c0-0.2-0.2-0.4-0.4-0.5
		c-0.3-0.1-0.5,0-0.7,0.2c-0.1,0.2-0.2,0.3-0.2,0.6c0,0.4,0,0.7,0,1.1c0,0.1,0,0.1,0,0.2c-0.1,0-0.1,0-0.2,0c0-0.7,0-1.4,0-2.1
		c0.1,0,0.1,0,0.2,0c0,0.1,0,0.2,0,0.3c0.2-0.3,0.4-0.4,0.7-0.4s0.5,0.2,0.7,0.4c0-0.1,0.1-0.1,0.1-0.1c0.3-0.3,0.7-0.4,1-0.2
		c0.3,0.1,0.4,0.3,0.4,0.6c0,0.1,0,0.1,0,0.2c0,0.4,0,0.8,0,1.1c0,0,0,0.1,0,0.2c-0.1,0-0.1,0-0.2,0c0-0.1,0-0.1,0-0.2
		c0-0.4,0-0.7,0-1.1c0-0.1,0-0.2,0-0.3c-0.1-0.3-0.2-0.4-0.5-0.5S14.2,21.8,14,22c0,0.2,0,0.3,0,0.5c0,0.3,0,0.7,0,1
		C14,23.6,14,23.7,14,23.7z"/>
	<path class="st4" d="M43.1,23.3C43.1,23.4,43,23.4,43.1,23.3c-0.6,0.7-1.5,0.5-1.8-0.2c-0.2-0.4-0.2-1,0.3-1.4
		c0.4-0.3,1-0.3,1.4,0.1l0.1,0.1c0-0.2,0-0.5,0-0.7s0-0.4,0-0.7c0.1,0,0.1,0,0.2,0c0,1,0,2,0,3.1c-0.1,0-0.1,0-0.2,0
		C43.1,23.6,43.1,23.5,43.1,23.3L43.1,23.3z M43.1,22.7c0-0.3-0.1-0.5-0.3-0.7c-0.5-0.4-1.2-0.3-1.4,0.3c-0.1,0.2-0.1,0.5,0,0.7
		c0.1,0.3,0.3,0.5,0.7,0.6C42.7,23.6,43.1,23.2,43.1,22.7z"/>
	<path class="st4" d="M4.7,21.6c0.1,0,0.1,0,0.2,0c0,0.1,0,0.3,0,0.4c0,0,0.1-0.1,0.1-0.1c0.3-0.3,0.6-0.4,1-0.3s0.7,0.4,0.7,0.8
		c0.1,0.3,0,0.7-0.2,1c-0.4,0.5-1.1,0.6-1.6,0.1l-0.1-0.1c0,0.4,0,0.7,0,1.1c-0.1,0-0.1,0-0.2,0C4.7,23.5,4.7,22.5,4.7,21.6z
		 M4.9,22.7c0,0.1,0,0.3,0.1,0.5c0.2,0.3,0.5,0.5,0.9,0.4c0.3,0,0.6-0.3,0.7-0.6c0.1-0.2,0.1-0.4,0-0.7c-0.2-0.4-0.6-0.6-1-0.5
		C5.1,21.9,4.9,22.3,4.9,22.7z"/>
	<path class="st4" d="M31.6,23.4c0,0.3,0,0.7,0,1c-0.1,0-0.1,0-0.2,0c0-0.9,0-1.9,0-2.8c0.1,0,0.1,0,0.2,0c0,0.1,0,0.3,0,0.4
		c0.1-0.1,0.1-0.1,0.1-0.1c0.3-0.3,0.7-0.5,1.1-0.3c0.4,0.1,0.7,0.5,0.7,0.9c0,0.3,0,0.6-0.2,0.8c-0.4,0.6-1.1,0.7-1.6,0.2
		C31.7,23.4,31.7,23.4,31.6,23.4L31.6,23.4z M33.3,22.7c0-0.2-0.1-0.4-0.1-0.5c-0.2-0.3-0.5-0.4-0.8-0.4c-0.7,0.1-1,0.9-0.6,1.5
		c0.2,0.3,0.5,0.4,0.9,0.3c0.3-0.1,0.5-0.3,0.6-0.6C33.3,22.8,33.3,22.8,33.3,22.7z"/>
	<path class="st4" d="M18.1,22.8c-0.6,0-1.2,0-1.8,0c0,0.3,0.1,0.6,0.4,0.7c0.4,0.3,0.8,0.1,1.2-0.2c0,0,0.1,0,0.1,0.1
		c0,0,0,0,0.1,0.1c-0.3,0.4-0.8,0.5-1.2,0.4c-0.4-0.1-0.7-0.5-0.7-1c0-0.3,0-0.5,0.2-0.8s0.6-0.5,1-0.4s0.7,0.3,0.8,0.7
		C18.1,22.4,18.1,22.6,18.1,22.8z M17.9,22.6c0-0.5-0.4-0.8-0.8-0.8s-0.8,0.4-0.7,0.8C16.9,22.6,17.4,22.6,17.9,22.6z"/>
	<path class="st4" d="M39,22.7c0,0.4,0.2,0.6,0.5,0.8c0.2,0.1,0.4,0.1,0.6,0.1c0.2,0,0.4-0.2,0.5-0.3l0.1,0.1
		c-0.2,0.2-0.4,0.3-0.6,0.4c-0.8,0.1-1.4-0.4-1.3-1.2c0-0.3,0.1-0.5,0.3-0.7c0.4-0.5,1.3-0.4,1.6,0.3c0.1,0.2,0.1,0.4,0.1,0.6
		C40.1,22.7,39.6,22.7,39,22.7z M40.5,22.6c0-0.5-0.3-0.8-0.7-0.8S39,22.2,39,22.6C39.5,22.6,40,22.6,40.5,22.6z"/>
	<path class="st4" d="M9.1,23.7c-0.1,0-0.1,0-0.2,0c0-0.1,0-0.2,0-0.3c-0.1,0.1-0.1,0.1-0.1,0.1c-0.3,0.3-0.8,0.3-1.2,0.1
		c-0.2-0.1-0.3-0.3-0.3-0.6c0-0.3,0.1-0.4,0.4-0.6c0.2-0.1,0.4-0.1,0.7-0.1c0.2,0,0.4,0,0.6,0.1c0.1-0.3-0.1-0.6-0.4-0.7
		c-0.2-0.1-0.5-0.1-0.7,0c-0.1,0-0.2,0.1-0.3,0.1c0-0.1,0-0.1-0.1-0.2c0.2-0.1,0.4-0.2,0.5-0.2c0.2,0,0.4,0,0.6,0
		c0.3,0.1,0.5,0.3,0.5,0.7c0,0.3,0,0.6,0,0.8C9.1,23.3,9.1,23.5,9.1,23.7z M8.9,22.7c-0.3-0.1-0.5-0.1-0.8-0.1c-0.1,0-0.2,0-0.3,0.1
		c-0.2,0.1-0.3,0.2-0.3,0.4c0,0.2,0.1,0.4,0.3,0.5c0.3,0.1,0.6,0.1,0.9-0.1c0.1-0.1,0.2-0.3,0.2-0.4C8.9,22.9,8.9,22.8,8.9,22.7z"/>
	<path class="st4" d="M9.8,21.6c0.3,0.6,0.6,1.2,0.9,1.9c0.3-0.7,0.5-1.3,0.8-1.9c0.1,0,0.1,0,0.2,0c0,0.1,0,0.1-0.1,0.2
		c-0.3,0.7-0.6,1.3-0.8,2c0,0.1-0.1,0.2-0.2,0.3c-0.2,0.4-0.7,0.4-1,0.2v-0.1c0,0,0,0,0-0.1c0.1,0,0.1,0,0.2,0.1
		c0.2,0,0.4,0,0.5-0.2c0,0,0,0,0-0.1c0.1-0.1,0.1-0.2,0-0.4c-0.3-0.6-0.6-1.2-0.9-1.8c0,0,0-0.1-0.1-0.2C9.6,21.6,9.7,21.6,9.8,21.6
		z"/>
	<path class="st4" d="M20.6,23.7c-0.1,0-0.1,0-0.2,0c0-0.1,0-0.1,0-0.2c0-0.3,0-0.7,0-1c0-0.1,0-0.1,0-0.2c-0.1-0.5-0.5-0.8-1-0.6
		C19.1,21.8,19,22,19,22.3c0,0.4,0,0.7,0,1.1c0,0.1,0,0.1,0,0.2c-0.1,0-0.1,0-0.2,0c0-0.7,0-1.4,0-2.1c0.1,0,0.1,0,0.2,0
		c0,0.1,0,0.2,0,0.3l0.1-0.1c0.3-0.3,0.7-0.4,1.1-0.2c0.3,0.1,0.4,0.3,0.5,0.6c0,0.1,0,0.2,0,0.2c0,0.4,0,0.7,0,1.1
		C20.6,23.6,20.6,23.7,20.6,23.7z"/>
	<path class="st4" d="M24.1,23.5c0-0.1,0.1-0.1,0.1-0.1c0.2,0.1,0.4,0.2,0.5,0.2c0.2,0.1,0.3,0,0.5,0c0.1,0,0.2-0.1,0.2-0.2
		c0.1-0.2,0.1-0.3-0.1-0.4c-0.1-0.1-0.3-0.1-0.4-0.2s-0.3-0.1-0.4-0.1c-0.2-0.1-0.4-0.2-0.3-0.5c0-0.3,0.1-0.4,0.4-0.5
		c0.2-0.1,0.3-0.1,0.5-0.1s0.4,0.1,0.6,0.2c0,0.1-0.1,0.1-0.1,0.2c-0.2-0.1-0.4-0.2-0.6-0.2c-0.1,0-0.3,0-0.4,0.1
		c-0.2,0.1-0.3,0.4,0,0.6c0.1,0.1,0.2,0.1,0.4,0.1c0.1,0,0.3,0.1,0.4,0.1c0.2,0.1,0.4,0.2,0.4,0.5s-0.1,0.4-0.4,0.5
		c-0.1,0-0.2,0.1-0.3,0.1C24.7,23.8,24.3,23.7,24.1,23.5z"/>
	<path class="st4" d="M36.4,21.6c0-0.1,0-0.1,0-0.2s0-0.2,0.1-0.3c0.1-0.2,0.2-0.4,0.5-0.4c0.1,0,0.3,0,0.4,0c0,0.1,0,0.1,0,0.2
		c-0.1,0-0.1,0-0.2,0c-0.1,0-0.1,0-0.2,0c-0.2,0-0.3,0.1-0.3,0.3c0,0.1,0,0.3-0.1,0.5c0.3,0,0.5,0,0.8,0c0,0.1,0,0.1,0,0.2
		c-0.2,0-0.5,0-0.7,0c0,0.2,0,0.4,0,0.6s0,0.4,0,0.7c0,0.2,0,0.4,0,0.6c-0.1,0-0.1,0-0.2,0c0-0.6,0-1.3,0-1.9c-0.1,0-0.2,0-0.3,0
		c0-0.1,0-0.1,0-0.2C36.2,21.6,36.3,21.6,36.4,21.6z"/>
	<path class="st4" d="M21.6,21.6c0.3,0,0.5,0,0.7,0c0,0.1,0,0.1,0,0.2c-0.2,0-0.5,0-0.7,0c0,0.1,0,0.1,0,0.2c0,0.4,0,0.8,0,1.1
		c0,0.4,0.3,0.5,0.6,0.4h0.1c0,0.2,0,0.2-0.1,0.2s-0.3,0-0.4,0c-0.2,0-0.4-0.2-0.4-0.4c0-0.1,0-0.2,0-0.2c0-0.4,0-0.8,0-1.2
		c0-0.1,0-0.1,0-0.2c-0.1,0-0.2,0-0.3,0c0-0.1,0-0.1,0-0.2c0.1,0,0.2,0,0.3,0c0-0.2,0-0.4,0-0.7c0.1,0,0.1,0,0.2,0
		C21.6,21.1,21.6,21.3,21.6,21.6z"/>
	<path class="st4" d="M34.4,23.7c-0.1,0-0.1,0-0.2,0c0-0.1,0-2.8,0-3.1c0.1,0,0.1,0,0.2,0C34.4,20.8,34.5,23.5,34.4,23.7z"/>
	<path class="st4" d="M26.4,21.6c0.1,0,0.1,0,0.2,0c0,0.7,0,1.4,0,2.1c-0.1,0-0.1,0-0.2,0C26.4,23,26.4,22.3,26.4,21.6z"/>
	<path class="st4" d="M35.5,21.6c0,0.7,0,1.4,0,2.1c-0.1,0-0.1,0-0.2,0c0-0.7,0-1.4,0-2.1C35.3,21.6,35.4,21.6,35.5,21.6z"/>
	<path class="st4" d="M37.9,23.7c0-0.7,0-1.4,0-2.1c0.1,0,0.1,0,0.2,0c0,0.1,0,1.9,0,2.1C38,23.7,37.9,23.7,37.9,23.7z"/>
	<path class="st4" d="M38.1,21.3c-0.1,0-0.2,0-0.2,0c0-0.1,0-0.2,0-0.3c0.1,0,0.2,0,0.2,0C38.1,21.2,38.1,21.2,38.1,21.3z"/>
	<path class="st4" d="M35.3,21.3c0-0.1,0-0.2,0-0.3c0.1,0,0.2,0,0.3,0c0,0.1,0,0.2,0,0.3C35.4,21.3,35.3,21.3,35.3,21.3z"/>
	<path class="st4" d="M26.4,21.3c0-0.1,0-0.2,0-0.3c0.1,0,0.2,0,0.3,0c0,0.1,0,0.2,0,0.3C26.5,21.3,26.5,21.3,26.4,21.3z"/>
</g>
</svg>
