<svg id="Layer_1" data-name="Layer 1" xmlns="http://www.w3.org/2000/svg" viewBox="0 0 500 500"><defs><style>.cls-1{fill:#e51833;}.cls-2{fill:#fff;}</style></defs><title>home-credit</title><circle class="cls-1" cx="250" cy="250" r="250"/><path class="cls-2" d="M372.11,243.22H350.69c-.22-3.65-.08-7.23-.1-10.8s0-7.19,0-10.78V200.31l-.36-.11c-.36.5-.73,1-1.06,1.5-5.75,8.81-11.51,17.6-17.2,26.44a2.72,2.72,0,0,1-2.7,1.45c-3.38-.08-6.76,0-10.13,0-6.44-9.91-12.84-19.73-19.23-29.56l-.37.1c-.22,2.84,0,5.7-.06,8.55s0,5.69,0,8.53l0,8.69v17.31h-21.4V156.62c.58,0,1.1-.08,1.62-.08,4.24,0,8.48,0,12.71,0a2.7,2.7,0,0,1,2.6,1.39q14.37,21.66,28.84,43.25c.34.52.72,1,1.24,1.74L356,156.62h16.1Z"/><path class="cls-2" d="M176.46,243.31h-1.41c-8.75,0-17.5,0-26.25,0a2.61,2.61,0,0,1-2.57-1.43,55.22,55.22,0,0,1-8.29-24.79c-1.6-21.36,6.56-38.42,23.25-51.48a60.39,60.39,0,0,1,30.33-12.36c17.62-2.19,33.72,1.79,47.9,12.56,11.77,8.95,19.37,20.69,22.19,35.29s.12,28.35-7.7,41.06a2,2,0,0,1-1.91,1.14c-9.18,0-18.35,0-27.53,0-.25,0-.5-.05-1-.1,10.25-8.56,15.4-19.24,14.64-32.45a36.42,36.42,0,0,0-11.78-25,38.11,38.11,0,0,0-53.2.83,36.48,36.48,0,0,0-11,29c.71,11.22,5.8,20.25,14.44,27.37Z"/><path class="cls-2" d="M43.69,156.62H65.05c0,.66.09,1.33.09,2q0,15.21,0,30.43v2c1.33.38,33.29.5,35.72.15.14-3.8,0-7.64.06-11.48s0-7.62,0-11.43V156.63h21.18c.33,1.17.48,83.3.16,86.38-1.12.37-19.36.45-21.34.06V210.63H65.19c-.08,2.88,0,5.54,0,8.2s0,5.48,0,8.22v16.14H43.69Z"/><path class="cls-2" d="M390.48,156.59H456c.34,1.26.39,16.74,0,18.48H412.27c-.43,1.28-.52,13.91-.12,16h38.44v18.23c-12.87.05-25.66,0-38.56,0v15.14c.66,0,1.33.1,2,.1H456c.39,1.31.48,16.51.17,18.43-1.16.37-64,.43-65.64,0Z"/><path class="cls-2" d="M45.45,263.15c.49,0,.81-.11,1.12-.11,8.91,0,17.81,0,26.72.09a27.8,27.8,0,0,1,11.37,2.6c8,3.69,12,10,12.6,18.71A24.71,24.71,0,0,1,95.74,295c-2.46,6.38-7.16,10.42-13.44,12.77a35.08,35.08,0,0,1-12.47,2.06H62.42c-.42,0-.84.06-1.36.1a33.57,33.57,0,0,0-.15,5.29c0,1.72,0,3.44,0,5.16v5.37H45.45ZM61,296.08a3.14,3.14,0,0,0,.62.17c3.32,0,6.64.09,10,0a11.24,11.24,0,0,0,6-1.91,9.45,9.45,0,0,0,4.22-9,8.38,8.38,0,0,0-5.91-7.68,18.48,18.48,0,0,0-5.17-1c-2.78-.16-5.57-.05-8.35,0-.46,0-.92.08-1.42.13Z"/><path class="cls-2" d="M320.31,281.23v44.56H305.54l-.18-2a8,8,0,0,0-1.06.43c-12.57,7.12-28.56,1-32.6-14.15-2.37-8.85-.52-17,5.95-23.67a22.11,22.11,0,0,1,26.26-3.9c.41.22.84.42,1.38.68.1-.7.17-1.26.26-1.94Zm-14.87,22.22c0-2,0-4,0-5.95a2.19,2.19,0,0,0-.81-1.82,11.75,11.75,0,0,0-11.51-2.77c-7.73,2.07-9.95,11.72-5.3,17.64,4.15,5.28,12.78,4.93,17,.45a2.12,2.12,0,0,0,.58-1.59C305.43,307.42,305.44,305.44,305.44,303.45Z"/><path class="cls-2" d="M150.86,325.79H136.22l-.24-2a7,7,0,0,0-.92.37c-11.25,6.48-26.08,2.24-31.69-11.15-3.7-8.85-1.93-19.86,5.14-26.83a22.31,22.31,0,0,1,25.75-3.88l1.67.86.3-1.93h14.56C151.11,282.37,151.19,323.76,150.86,325.79Zm-14.77-22.28c0-1.92-.05-3.86,0-5.78a2.65,2.65,0,0,0-1.09-2.34,11.71,11.71,0,0,0-11.13-2.49c-7.46,2-9.39,10.4-6.45,16,3.78,7.15,13.51,6.89,18.09,2.18a2.08,2.08,0,0,0,.57-1.6C136.08,307.48,136.09,305.5,136.09,303.51Z"/><path class="cls-2" d="M184.54,347.3H169c.21-.6.36-1.08.55-1.54,2.69-6.44,5.36-12.88,8.1-19.29a3,3,0,0,0-.09-2.84q-10.22-20.36-20.35-40.74c-.26-.52-.49-1-.79-1.7h15.76q6.26,13.65,12.56,27.35h.4q5.77-13.67,11.56-27.36h15.74C203.1,303.29,193.84,325.26,184.54,347.3Z"/><path class="cls-2" d="M417,307H384.71a12.7,12.7,0,0,0,.22,1.35,9.4,9.4,0,0,0,9.06,6.92,20.65,20.65,0,0,0,4.15-.35,5,5,0,0,0,2.3-1.07,3.73,3.73,0,0,1,2.77-.91c3.81,0,7.62,0,11.43,0h1.95c-.28.78-.45,1.33-.68,1.85a18.72,18.72,0,0,1-10.7,10.35,26.65,26.65,0,0,1-22-.69c-7.46-3.58-11.42-9.8-12.41-17.95a24.81,24.81,0,0,1,1.88-13.37c3.28-7.34,9-11.57,16.86-12.93a26.41,26.41,0,0,1,14,1.22C411.19,284.34,415.64,290,417,298a46.35,46.35,0,0,1,.33,6.57A16.64,16.64,0,0,1,417,307Zm-13.63-8.59a7.52,7.52,0,0,0-5.59-7.07,12.34,12.34,0,0,0-3-.47c-4.33-.09-7.69,1.54-9.52,5.95a15.52,15.52,0,0,0-.47,1.59Z"/><path class="cls-2" d="M234.66,312.06h31c.12,4.59,0,9.07.05,13.52-1.18.37-44.46.47-46.55.12V263.34c1.11-.38,13-.49,15.34-.11,0,.68.12,1.41.12,2.13v46.7Z"/><path class="cls-2" d="M365.21,293.86H350c-.06.63-.13,1.1-.14,1.56,0,3.59,0,7.19,0,10.78.05,5,2.42,7.24,7.4,7.2a18.52,18.52,0,0,0,5.81-1.15l1.83-.62c.56,4.53,1.11,8.87,1.65,13.23a22,22,0,0,1-6.11,1.78,28.88,28.88,0,0,1-11-.05,17.41,17.41,0,0,1-14.05-15.09,34.26,34.26,0,0,1-.35-4.64c0-3.65,0-7.3,0-10.95v-2h-8.49c-.44-1.44-.49-11.06-.08-12.84h8.45a42.52,42.52,0,0,0,.11-5c0-1.71,0-3.43,0-5.15v-5.07h14.74c0,.55.12,1.11.12,1.67,0,3.86,0,7.73,0,11.59,0,.58.05,1.16.08,2,5.08.05,10,0,15.21,0C365.26,285.38,365.21,289.53,365.21,293.86Z"/><path class="cls-2" d="M440,325.8H425.2c-.31-1.21-.37-42.77-.05-44.59h14.76v4.48c1.78-1.09,3.25-2.16,4.86-2.93a30,30,0,0,1,5.12-1.83,17.06,17.06,0,0,1,5.46-.51v14c-1.41.16-2.79.3-4.15.5a20.26,20.26,0,0,0-10.1,4.25,2.83,2.83,0,0,0-1.16,2.45c.05,7.35,0,14.7,0,22Z"/><path class="cls-2" d="M179.94,221.75H220.2c-.07,5.81-9.41,13.63-17.26,14.53C192.66,237.45,182.13,230.87,179.94,221.75Z"/></svg>