<svg id="Layer_1" data-name="Layer 1" xmlns="http://www.w3.org/2000/svg" viewBox="0 0 500 500"><defs><style>.cls-1{fill:#e0e0e0;}.cls-2{fill:#45b6e2;}.cls-3{fill:#6eb9d6;}.cls-4{fill:#f17c2d;}.cls-5{fill:#5eafc5;}.cls-6{fill:#77bfd6;}.cls-7{fill:#76bfd6;}.cls-8{fill:#70bbd6;}.cls-9{fill:#77bfd5;}.cls-10{fill:#6cbad5;}.cls-11{fill:#73bdd5;}.cls-12{fill:#6ebad4;}.cls-13{fill:#f17d2d;}.cls-14{fill:#e7985d;}.cls-15{fill:#6db9d6;}.cls-16{fill:#6fbbd7;}</style></defs><title>Logo kredivo</title><circle class="cls-1" cx="250" cy="250" r="250"/><path class="cls-2" d="M469.64,250.53V251c-.46,1.4-.11,2.84-.19,4.25v1.05c-.15,1.05-.27,2.1-.44,3.14a26.05,26.05,0,0,1-9.55,16.76,27.69,27.69,0,0,1-13.69,5.69,32.94,32.94,0,0,1-12.08-.32,30.59,30.59,0,0,1-16.79-10.15,29.82,29.82,0,0,1-6.4-12.36,33.54,33.54,0,0,1-.4-13.64,25.34,25.34,0,0,1,10.37-17.17c5.77-4.16,12.34-5.59,19.36-5.49a29.14,29.14,0,0,1,16.63,5.35,29.55,29.55,0,0,1,12.61,19.52A11,11,0,0,0,469.64,250.53ZM432.4,264.7l1.1.62A12.64,12.64,0,0,0,449.65,262c3.76-5.14,4.06-10.7,1.53-16.4a12.85,12.85,0,0,0-18.94-5.33,15.09,15.09,0,0,0-5.45,16.2,15.91,15.91,0,0,0,5,7.81C431.74,264.72,432.05,264.73,432.4,264.7Z"/><path class="cls-3" d="M431.75,264.24a1,1,0,0,1,.65.46C432.05,264.73,431.74,264.72,431.75,264.24Z"/><path class="cls-4" d="M30.55,319l-.16-.88q0-18.66,0-37.31c0-1.94,0-3.88,0-5.82L65.11,237l31.83-34.79q10.66-11.69,21.34-23.37c.26-.29.55-.54.83-.81l11.32,0h27.84l.89.17c3.28,1.27,4,5.1,1.91,8-3.19,4.45-7.1,8.26-10.77,12.28-7.18,7.87-14.44,15.67-21.65,23.51L94.07,259.66,69.86,286Q54.76,302.38,39.64,318.8A7.13,7.13,0,0,1,33,321,3,3,0,0,1,30.55,319Z"/><path class="cls-2" d="M64.29,178.3a.65.65,0,0,0,.2,0c1.77.74,2.32,2.26,2.52,4a20.52,20.52,0,0,1,0,2.22q0,16.92,0,33.85a2.8,2.8,0,0,1-.77,2.08q-8.87,9.7-17.68,19.46c-2.91,3.21-5.8,6.43-8.73,9.62a6.72,6.72,0,0,1-6.71,2.09,3.46,3.46,0,0,1-2.59-2.28l0-.42V179.78l0-.21a1.62,1.62,0,0,1,.65-.85c.31,0,.61,0,.67-.38a.57.57,0,0,1,.18,0Z"/><path class="cls-5" d="M30.6,179.78v69.07c-.23-.16-.19-.42-.23-.65q0-24.64,0-49.27,0-9.26,0-18.51C30.4,180.19,30.37,179.94,30.6,179.78Z"/><path class="cls-6" d="M31.88,178.34c-.06.41-.36.4-.67.38A.65.65,0,0,1,31.88,178.34Z"/><path class="cls-2" d="M205.29,277.44a27.62,27.62,0,0,1-9.09-9.09c0-.33,0-.63-.42-.66a30,30,0,0,1,21.41-45.26c7.53-1.08,14.17,1.39,20.17,5.83a29.67,29.67,0,0,1,6.51,6.44,25,25,0,0,1,4.47,11.8,27.83,27.83,0,0,1,.21,7.68,4,4,0,0,1-1.68,2.93c-.32,0-.63,0-.67.41a7.4,7.4,0,0,1-3.71.62c-10.83-.22-21.67-.17-32.5-.25h-1.06c-.32,0-.43.16-.31.48,1.48,3.86,3.63,7.15,7.82,8.42a17.61,17.61,0,0,0,14.44-1.89c1-.58,1.94-1.28,2.92-1.9,1.52-.95,2.54-.9,3.78.39,2,2,3.87,4.11,5.74,6.21a2.14,2.14,0,0,1-.1,3.29,30.14,30.14,0,0,1-36.65,5.37c-.21-.12-.41-.27-.61-.41C205.93,277.42,205.62,277.42,205.29,277.44Zm6.23-36c-.47,0-.49.29-.46.64-.33.58-.64,1.18-1,1.73-.52.78-.42,1,.58,1,6.84,0,13.69,0,20.53,0,.33,0,.69.12,1-.16a15.6,15.6,0,0,0-4.54-5.61,10.92,10.92,0,0,0-12.1-1A16.33,16.33,0,0,0,211.52,241.45Z"/><path class="cls-7" d="M205.29,277.44c.33,0,.64,0,.67.42A.8.8,0,0,1,205.29,277.44Z"/><path class="cls-8" d="M246.2,257.52c0-.45.35-.44.67-.41A.73.73,0,0,1,246.2,257.52Z"/><path class="cls-9" d="M195.78,267.69c.45,0,.45.33.42.66A.83.83,0,0,1,195.78,267.69Z"/><path class="cls-2" d="M261.41,269.39a26.44,26.44,0,0,1-3.93-8.46c-1.83-6.35-2.29-12.78-.3-19.17,3-9.59,9.39-15.68,19.12-18.17a25.8,25.8,0,0,1,13.89,0,19.23,19.23,0,0,1,6.51,3.4l1.4,1.06a9.44,9.44,0,0,0,.12-2.93c-.21-5.61-.1-11.22-.14-16.83,0-1.37.64-2,2-2q6.57,0,13.13,0c1.6,0,2.21.7,2.23,2.4.09,11.65.11,23.29.29,34.94.1,6.81,0,13.62.2,20.43.12,5,.09,9.95.14,14.92,0,1.73-.52,2.26-2.28,2.26-3.28,0-6.56-.08-9.84,0a3.17,3.17,0,0,1-3.31-2.08c-.54-1.18-1-2.38-1.58-3.68a22.26,22.26,0,0,1-6,4.63,20.24,20.24,0,0,1-12.87,1.74,27.19,27.19,0,0,1-18-11.3,5,5,0,0,1-.33-.55C261.89,269.71,261.88,269.4,261.41,269.39Zm16.37-5.1a13.49,13.49,0,0,0,14,1c9-4.23,10.76-16.78,3.36-23.48-5.14-4.66-12.37-5.27-17.46-1.36-4.84,3.73-6.3,9.81-5,15.73a14.48,14.48,0,0,0,4.51,7.6C277.12,264.28,277.43,264.31,277.78,264.29Z"/><path class="cls-10" d="M261.41,269.39c.47,0,.48.32.44.66A.89.89,0,0,1,261.41,269.39Z"/><path class="cls-2" d="M380.06,252.44c1-2.9,2-5.79,2.95-8.69,2.05-6.14,4.07-12.3,6.12-18.44a2.64,2.64,0,0,1,2.92-2.09H405.6c2,0,2.56.78,1.81,2.67-1,2.52-2,5-3,7.54q-8.79,21.8-17.6,43.59c-.39,1-.8,2-1.28,2.89a2.43,2.43,0,0,1-2.33,1.35c-2.19,0-4.38-.07-6.57,0a3.09,3.09,0,0,1-3.25-2.16l-3.87-9.38-14.2-34.47q-1.75-4.24-3.5-8.5a6,6,0,0,1-.19-.6c-.53-1.84.23-2.92,2.14-2.93,3.42,0,6.84,0,10.27,0h2.11a2.39,2.39,0,0,1,2.09,1c0,.32,0,.63.42.67,1,2.67,2,5.33,2.92,8q3.46,9.79,6.9,19.6a7.43,7.43,0,0,0,.35.76,2.31,2.31,0,0,0,.52,1.38,1.28,1.28,0,0,0,.33-.95h0A2,2,0,0,0,380.06,252.44Z"/><path class="cls-11" d="M368.62,224.91c-.44,0-.44-.35-.42-.67A.74.74,0,0,1,368.62,224.91Z"/><path class="cls-2" d="M189.88,233.63c-2,2.83-3.9,5.68-5.91,8.48-.68.95-1.42,1-2.37.26s-2-1.73-3.15-2.48a11.26,11.26,0,0,0-13.66.39,8.88,8.88,0,0,0-3,7.06c0,10,.15,20.11.24,30.17a10.88,10.88,0,0,1,0,2.21,1.65,1.65,0,0,1-1.73,1.52q-6.94,0-13.88,0a1.72,1.72,0,0,1-1.82-1.89c0-.81,0-1.62,0-2.43-.08-10.27-.1-20.54-.28-30.81-.12-6.81-.08-13.62-.15-20.43,0-1.93.5-2.45,2.43-2.45,2.4,0,4.8,0,7.2,0a3.31,3.31,0,0,1,3.49,2.33c.53,1.35,1.09,2.68,1.64,4,.12.29.15.72.47.78s.49-.43.69-.7c1.61-2.14,3.25-4.25,5.74-5.49,3.82-1.91,7.78-1.81,11.75-.69a34.2,34.2,0,0,1,11.44,6,7.38,7.38,0,0,1,1.08,1,1.83,1.83,0,0,1,.27,2.49C189.84,233,189.85,233.3,189.88,233.63Z"/><path class="cls-12" d="M189.88,233.63c0-.33,0-.64.42-.68A.81.81,0,0,1,189.88,233.63Z"/><path class="cls-2" d="M133.66,321.91c-6.07,0-12.14,0-18.21,0a2.65,2.65,0,0,1-2.25-1Q100.33,306.41,87.39,292a12.25,12.25,0,0,1-2.62-3.67,4.14,4.14,0,0,1,1.1-4.64c2.83-3,5.69-6,8.54-9,3.24-3.38,6.47-6.78,9.73-10.15,2.63-2.72,5.33-2.62,7.89.2q12.57,13.85,25.16,27.68,9,9.9,18,19.81a6.93,6.93,0,0,1,.41,8.08,3.73,3.73,0,0,1-3.27,1.58Q143,321.9,133.66,321.91Z"/><path class="cls-2" d="M345.55,272.29v6.56c0,1.93-.45,2.4-2.33,2.4h-12.7c-1.91,0-2.36-.48-2.41-2.35-.26-9.24,0-18.49-.24-27.73-.15-6.91-.09-13.82-.19-20.73,0-1.59-.1-3.18-.1-4.76s.74-2.46,2.44-2.46h12.6c1.78,0,2.47.7,2.49,2.51q.13,18.42.26,36.83c0,3.24,0,6.49,0,9.73Z"/><path class="cls-13" d="M344.87,201.82c0,3.88.08,7.76.07,11.64,0,1.75-.61,2.58-2.34,2.65a94,94,0,0,1-12.67-.06c-1.69-.16-2.39-1.07-2.43-2.78-.08-3.6-.17-7.19-.16-10.79,0-2.72,1.19-3.85,3.89-3.85,3.49,0,7,0,10.48,0a2.69,2.69,0,0,1,2.77,1.68A2.2,2.2,0,0,0,344.87,201.82Z"/><path class="cls-14" d="M344.87,201.82a2.2,2.2,0,0,1-.39-1.51A1.7,1.7,0,0,1,344.87,201.82Z"/><path class="cls-15" d="M211.52,241.45a.91.91,0,0,1-.46.64C211,241.74,211.05,241.43,211.52,241.45Z"/><path class="cls-16" d="M277.15,263.81a.9.9,0,0,1,.63.48C277.43,264.31,277.12,264.28,277.15,263.81Z"/></svg>